<?xml version="1.0" standalone="no"?>
<!DOCTYPE svg PUBLIC "-//W3C//DTD SVG 20010904//EN"
 "http://www.w3.org/TR/2001/REC-SVG-20010904/DTD/svg10.dtd">
<svg version="1.0" xmlns="http://www.w3.org/2000/svg"
 width="383.000000pt" height="383.000000pt" viewBox="0 0 383.000000 383.000000"
 preserveAspectRatio="xMidYMid meet">
<metadata>
Created by potrace 1.11, written by Peter Selinger 2001-2013
</metadata>
<g transform="translate(0.000000,383.000000) scale(0.100000,-0.100000)"
fill="#000000" stroke="none">
<path d="M1735 2990 c-432 -93 -759 -430 -841 -869 -20 -107 -14 -365 10 -451
9 -30 16 -58 16 -61 0 -3 -16 -13 -35 -22 -19 -9 -35 -12 -35 -7 0 6 -13 10
-30 10 l-30 0 0 -100 0 -100 30 0 30 0 0 63 c0 74 18 109 47 91 14 -9 19 -26
21 -83 l3 -71 29 0 30 0 1 68 c2 67 2 67 8 17 11 -93 138 -272 269 -381 145
-121 299 -197 476 -236 78 -17 117 -19 266 -15 153 4 186 8 265 31 189 57 366
164 492 300 66 70 153 187 153 205 0 6 9 11 19 11 15 0 20 9 24 43 3 34 22 96
34 116 1 2 9 -2 18 -9 11 -9 15 -32 15 -81 l0 -69 33 0 c32 0 32 1 29 40 -6
56 5 107 25 114 30 12 43 -13 43 -85 l0 -69 33 0 32 0 -3 90 c-3 79 -6 92 -25
105 -27 19 -57 19 -83 1 -18 -13 -25 -13 -57 2 -20 9 -35 23 -32 29 42 120 45
443 6 586 -32 117 -68 198 -127 293 -156 248 -368 405 -659 486 -107 30 -379
35 -500 8z"/>
<path d="M3700 1540 l0 -150 35 0 35 0 0 150 0 150 -35 0 -35 0 0 -150z"/>
<path d="M110 1535 l0 -145 85 0 c84 0 85 0 85 25 0 23 -3 25 -49 25 -44 0
-49 3 -55 25 -9 37 -3 42 49 39 44 -2 45 -2 45 27 0 28 -2 29 -45 29 -29 0
-45 4 -46 13 0 6 -2 20 -4 30 -3 14 5 17 49 17 51 0 53 1 52 28 -1 27 -1 27
-83 30 l-83 3 0 -146z"/>
<path d="M358 1583 c-51 -32 -65 -118 -28 -166 37 -47 160 -45 160 2 0 18 -5
19 -49 14 -43 -5 -50 -3 -60 15 -11 20 -9 21 56 24 66 3 68 4 65 28 -6 55 -14
70 -42 85 -37 19 -68 19 -102 -2z m80 -55 c3 -15 -4 -18 -32 -18 -38 0 -44 8
-24 28 17 17 52 11 56 -10z"/>
<path d="M640 1593 c-8 -3 -18 -11 -22 -17 -5 -8 -8 -7 -8 2 0 7 -14 12 -35
12 l-35 0 0 -100 0 -100 35 0 34 0 3 71 c2 55 7 74 20 83 30 18 43 -8 43 -84
l0 -70 33 0 32 0 0 80 c0 73 -3 83 -25 105 -24 24 -45 29 -75 18z"/>
<path d="M3300 1592 c-18 -6 -26 -16 -28 -36 -3 -25 -2 -27 18 -16 25 14 72
10 77 -7 3 -7 -13 -14 -41 -18 -56 -9 -78 -32 -74 -76 2 -24 11 -38 31 -49 25
-14 30 -13 57 2 17 9 30 13 30 8 0 -6 15 -10 34 -10 l33 0 -4 83 c-3 60 -9 87
-22 100 -20 20 -74 29 -111 19z m68 -134 c-3 -25 -34 -36 -50 -20 -17 17 -1
42 27 42 22 0 26 -4 23 -22z"/>
<path d="M3520 1591 c-14 -4 -26 -15 -28 -27 -3 -18 2 -20 44 -20 63 1 70 -20
10 -29 -56 -9 -78 -32 -74 -76 2 -24 11 -38 31 -49 25 -14 30 -13 57 2 17 9
30 13 30 8 0 -6 15 -10 33 -10 l32 0 -3 83 c-3 73 -6 85 -28 105 -25 22 -57
26 -104 13z m68 -133 c-4 -31 -58 -40 -58 -10 0 25 8 32 37 32 20 0 24 -5 21
-22z"/>
</g>
</svg>
